<?xml version="1.0" encoding="UTF-8" standalone="no"?>
<svg
   xmlns:dc="http://purl.org/dc/elements/1.1/"
   xmlns:cc="http://creativecommons.org/ns#"
   xmlns:rdf="http://www.w3.org/1999/02/22-rdf-syntax-ns#"
   xmlns:svg="http://www.w3.org/2000/svg"
   xmlns="http://www.w3.org/2000/svg"
   viewBox="150 180 300.27557 5.88977"
   id="svg2"
   height="80.88977"
   width="300.27557"
   version="1.1">
  <metadata
     id="metadata12">
    <rdf:RDF>
      <cc:Work
         rdf:about="">
        <dc:format>image/svg+xml</dc:format>
        <dc:type
           rdf:resource="http://purl.org/dc/dcmitype/StillImage" />
      </cc:Work>
    </rdf:RDF>
  </metadata>
  <defs
     id="defs10" />
  <path
     id="path4"
     style="fill:#ec6105;fill-rule:evenodd"
     d="m 178.5686,189.4209 -9.3138,0 0,-34.9273 17.5567,0 c 2.1967,0 4.044,0.2408 5.5577,0.7296 1.5134,0.4814 2.7321,1.2265 3.6631,2.2355 0.9319,1.0088 1.6149,2.3282 2.0493,3.9503 0.4348,1.63 0.6519,3.5861 0.6519,5.8832 0,2.5616 -0.1705,4.673 -0.5197,6.326 -0.3495,1.6609 -0.955,2.988 -1.8089,3.9817 -0.8534,1.0011 -2.0487,1.731 -3.5935,2.1889 -1.5526,0.4579 -3.5473,0.6908 -5.9999,0.6908 l -8.2429,0 0,8.9413 z m 0,-17.0444 6.3804,0 c 1.2649,0 2.1734,-0.1167 2.7321,-0.3418 0.5585,-0.225 0.9389,-0.6827 1.1486,-1.3735 0.2093,-0.6829 0.3103,-1.8085 0.3103,-3.369 0,-1.2574 -0.101,-2.2119 -0.3103,-2.8717 -0.202,-0.6521 -0.5975,-1.1252 -1.1873,-1.405 -0.5981,-0.279 -1.4902,-0.4187 -2.6934,-0.4187 l -6.3804,0 0,9.7797 z m 24.0305,-17.8829 8.8481,0 0,22.9979 0.3261,0 10.8974,-22.9979 12.2475,0 0,34.9273 -8.8478,0 0,-22.9979 -0.3186,0 -10.4856,22.9979 -12.6671,0 0,-34.9273 z m 47.6874,0 0,13.1326 2.7944,0 8.9958,-13.1326 11.2621,0 -12.2867,17.1299 13.3109,17.7974 -11.549,0 -9.7331,-13.6913 -2.7944,0 0,13.6913 -9.314,0 0,-34.9273 9.314,0 z m 70.7656,28.92 -12.5275,0 -1.7153,6.0073 -9.6864,0 10.4704,-34.9273 14.1653,0 10.6174,34.9273 -9.5002,0 -1.8237,-6.0073 z m -1.8629,-6.7994 -4.3312,-15.1429 -0.0926,0 -4.2381,15.1429 8.6619,0 z m 24.6358,12.8067 0,-26.8241 14.5762,0 0,-8.1032 -23.8902,0 0,34.9273 9.314,0 z m 27.2433,0 -9.314,0 0,-34.9273 17.5569,0 c 2.1961,0 4.0439,0.2408 5.5572,0.7296 1.5133,0.4814 2.7321,1.2265 3.6636,2.2355 0.9314,1.0088 1.6143,2.3282 2.0491,3.9503 0.4344,1.63 0.6515,3.5861 0.6515,5.8832 0,2.5616 -0.1705,4.673 -0.5196,6.326 -0.3496,1.6609 -0.9549,2.988 -1.8085,3.9817 -0.8539,1.0011 -2.0491,1.731 -3.5939,2.1889 -1.552,0.4579 -3.5468,0.6908 -5.9994,0.6908 l -8.2429,0 0,8.9413 z m 0,-17.0444 6.38,0 c 1.2648,0 2.1732,-0.1167 2.7321,-0.3418 0.5587,-0.225 0.9391,-0.6827 1.1485,-1.3735 0.2099,-0.6829 0.3109,-1.8085 0.3109,-3.369 0,-1.2574 -0.101,-2.2119 -0.3109,-2.8717 -0.2014,-0.6521 -0.5976,-1.1252 -1.1873,-1.405 -0.5976,-0.279 -1.4903,-0.4187 -2.6933,-0.4187 l -6.38,0 0,9.7797 z m 38.785,17.3239 c -2.5847,0 -4.8278,-0.1785 -6.7373,-0.5358 -1.9095,-0.3569 -3.5704,-0.9933 -4.9828,-1.9169 -1.4049,-0.9162 -2.4992,-2.2275 -3.2758,-3.9199 -0.7682,-1.6918 -1.1564,-3.8419 -1.1564,-6.4344 l 0,-9.8727 c 0,-2.5924 0.3882,-4.7425 1.1644,-6.4501 0.776,-1.6995 1.8706,-3.0035 3.2756,-3.9193 1.4046,-0.9159 3.0655,-1.5448 4.975,-1.9018 1.9095,-0.3569 4.1526,-0.5352 6.7373,-0.5352 2.5923,0 4.8429,0.1783 6.7602,0.5352 1.9174,0.357 3.5704,0.9859 4.9828,1.9018 1.4051,0.9158 2.4914,2.2198 3.268,3.9193 0.7682,1.7076 1.1564,3.8577 1.1564,6.4501 l 0,9.8727 c 0,2.5925 -0.3882,4.7426 -1.1564,6.4344 -0.7688,1.6924 -1.8551,3.0037 -3.268,3.9199 -1.4044,0.9236 -3.0654,1.56 -4.9828,1.9169 -1.9173,0.3573 -4.1679,0.5358 -6.7602,0.5358 z m 0,-8.1031 c 1.7848,0 3.1203,-0.124 4.0126,-0.3726 0.8847,-0.2406 1.5368,-0.7686 1.9481,-1.5835 0.4113,-0.8074 0.6133,-2.0722 0.6133,-3.7723 l 0,-7.8702 c 0,-1.3114 -0.1162,-2.336 -0.3496,-3.0811 -0.2251,-0.7531 -0.5975,-1.3119 -1.0941,-1.6844 -0.5045,-0.3727 -1.1486,-0.6212 -1.9403,-0.7373 -0.7917,-0.1168 -1.8551,-0.1785 -3.19,-0.1785 -1.7619,0 -3.0812,0.1241 -3.9586,0.3647 -0.8692,0.2408 -1.5056,0.7608 -1.9169,1.5599 -0.4119,0.7917 -0.6367,2.0491 -0.6829,3.7567 l 0,7.8702 c 0.0462,1.7153 0.271,2.9806 0.675,3.7881 0.4035,0.7991 1.0476,1.3271 1.9248,1.5677 0.8774,0.2486 2.1967,0.3726 3.9586,0.3726 z M 292.1461,174.007 c 0,1.3836 -0.3425,2.6651 -1.0346,3.8502 -0.6852,1.1782 -1.6305,2.1167 -2.8156,2.8016 -1.1922,0.6921 -2.4867,1.0347 -3.8777,1.0347 -1.3906,0 -2.6716,-0.3356 -3.8498,-1.0141 -1.1718,-0.6711 -2.1031,-1.6031 -2.7952,-2.7882 -0.6921,-1.1854 -1.0411,-2.4796 -1.0411,-3.8842 0,-1.3976 0.3356,-2.6921 1.0137,-3.8773 0.6781,-1.1851 1.6031,-2.1244 2.7882,-2.8161 1.1848,-0.6916 2.48,-1.0341 3.8842,-1.0341 1.391,0 2.6855,0.3425 3.8777,1.0341 1.1851,0.6921 2.1304,1.631 2.8156,2.8225 0.6921,1.1854 1.0346,2.4803 1.0346,3.8709 z" />
  <path
     id="path6"
     style="fill:#151616;fill-rule:evenodd"
     d="m 174.8034,206.4012 0.9323,0 c 0,0.7654 -0.0978,1.3601 -0.2955,1.7822 -0.1956,0.4221 -0.539,0.727 -1.0283,0.9113 -0.4892,0.1841 -1.1854,0.2761 -2.093,0.2761 -0.6868,0 -1.2449,-0.0594 -1.6708,-0.1803 -0.4278,-0.1209 -0.7713,-0.3358 -1.0302,-0.6427 -0.2589,-0.3069 -0.447,-0.7462 -0.5641,-1.316 -0.1169,-0.5679 -0.1764,-1.3141 -0.1764,-2.2349 0,-0.9188 0.0575,-1.6632 0.1727,-2.2368 0.1151,-0.5736 0.3029,-1.0188 0.5639,-1.3372 0.2628,-0.3184 0.6081,-0.541 1.0379,-0.6676 0.4298,-0.1266 0.986,-0.19 1.667,-0.19 0.6812,0 1.2317,0.0557 1.6557,0.1652 0.4219,0.1112 0.7482,0.28 0.9783,0.5101 0.2283,0.2284 0.3895,0.5104 0.4815,0.8499 0.0941,0.3376 0.1555,0.7731 0.1861,1.3064 l -0.9303,-0.0115 c -0.0596,-0.5659 -0.144,-0.9802 -0.2534,-1.2392 -0.1092,-0.2591 -0.3221,-0.4469 -0.6368,-0.5641 -0.3146,-0.1169 -0.8076,-0.1764 -1.4811,-0.1764 -0.5082,0 -0.9188,0.0498 -1.2315,0.1496 -0.3109,0.1017 -0.5584,0.2781 -0.7405,0.5352 -0.1823,0.2552 -0.3109,0.6139 -0.3875,1.0763 -0.0768,0.4623 -0.1151,1.0723 -0.1151,1.8301 0,0.7654 0.0383,1.3735 0.1131,1.8244 0.0749,0.4508 0.2035,0.8 0.3838,1.0512 0.1821,0.2514 0.4276,0.4241 0.7385,0.5181 0.3107,0.094 0.7251,0.14 1.2392,0.14 0.5218,0 0.9419,-0.0326 1.2605,-0.0978 0.3204,-0.0634 0.5679,-0.1746 0.7462,-0.33 0.1784,-0.1554 0.3012,-0.3664 0.3721,-0.635 0.0711,-0.2686 0.1057,-0.6253 0.1057,-1.0666 z m 3.5453,-1.9567 4.3856,0 0,0.8402 -4.3856,0 0,3.1308 4.5717,0 0,0.8633 -5.527,0 0,-8.6212 5.5481,0 0,0.8516 -4.5928,0 0,2.9353 z m 13.2221,4.8343 -0.9554,0 0,-7.7464 -4.1669,0 0,5.2255 c 0,0.8499 -0.1226,1.483 -0.3701,1.8993 -0.2455,0.4144 -0.6639,0.6216 -1.2509,0.6216 l -0.6101,0 0,-0.8517 0.2303,0 c 0.2667,0 0.4719,-0.0385 0.6159,-0.1134 0.1457,-0.0766 0.2532,-0.2263 0.3241,-0.4487 0.0711,-0.2226 0.1055,-0.5564 0.1055,-1.0034 l 0,-6.1926 6.0776,0 0,8.6098 z m 2.3216,-8.6212 0.9553,0 0,3.6486 2.8085,0 c 0.633,0 1.1434,0.0846 1.5271,0.2552 0.3856,0.1709 0.6656,0.4393 0.844,0.8039 0.1766,0.3644 0.2649,0.8459 0.2649,1.4483 0,0.589 -0.0864,1.0628 -0.2572,1.4235 -0.1707,0.3607 -0.4432,0.6253 -0.8153,0.7922 -0.3741,0.1669 -0.8634,0.2495 -1.4695,0.2495 l -3.8578,0 0,-8.6212 z m 0.9553,4.5119 0,3.246 2.8316,0 c 0.4489,0 0.7922,-0.0518 1.0302,-0.1573 0.2358,-0.1054 0.397,-0.2706 0.4853,-0.4969 0.0863,-0.2283 0.1303,-0.543 0.1303,-0.9477 0,-0.424 -0.0478,-0.7519 -0.1438,-0.9842 -0.0977,-0.234 -0.2705,-0.4027 -0.5198,-0.5044 -0.2514,-0.1037 -0.6081,-0.1555 -1.0743,-0.1555 l -2.7395,0 z m 8.2035,-4.5119 2.4401,3.6832 2.4422,-3.6832 1.1491,0 -2.8297,4.1552 3.0829,4.466 -1.1722,0 -2.6723,-3.9595 -2.6704,3.9595 -1.174,0 3.0847,-4.466 -2.8315,-4.1552 1.1511,0 z m 7.3976,4.3162 c 0,0.9459 0.0538,1.6978 0.1632,2.258 0.1092,0.5603 0.2953,0.9956 0.5581,1.3065 0.2647,0.3127 0.6236,0.5276 1.0783,0.6502 0.4544,0.1209 1.0588,0.1823 1.8127,0.1823 0.7616,0 1.3718,-0.0614 1.8302,-0.1823 0.4586,-0.1226 0.8193,-0.3375 1.0802,-0.6464 0.2607,-0.3087 0.445,-0.7462 0.5544,-1.3103 0.1092,-0.562 0.1629,-1.3161 0.1629,-2.258 0,-0.9477 -0.0537,-1.7035 -0.1592,-2.2694 -0.1074,-0.5639 -0.2915,-1.0014 -0.5544,-1.3121 -0.2629,-0.3089 -0.6196,-0.5258 -1.0725,-0.6466 -0.4507,-0.1209 -1.0588,-0.1804 -1.8185,-0.1804 -0.7655,0 -1.3774,0.0595 -1.8341,0.1804 -0.4546,0.1208 -0.8153,0.3377 -1.078,0.6484 -0.2629,0.3109 -0.4489,0.7482 -0.5583,1.3103 -0.1093,0.5601 -0.165,1.318 -0.165,2.2694 z m 0.9669,0 c 0,-0.8325 0.0288,-1.4675 0.0863,-1.9088 0.0594,-0.4392 0.1765,-0.7827 0.3529,-1.0262 0.1766,-0.2455 0.4338,-0.4124 0.7693,-0.5007 0.3378,-0.0883 0.8193,-0.1324 1.4484,-0.1324 0.6235,0 1.1051,0.0441 1.4408,0.1324 0.3358,0.0883 0.5928,0.2552 0.7674,0.4987 0.1765,0.2437 0.2935,0.587 0.351,1.0282 0.0594,0.4393 0.0882,1.0763 0.0882,1.9088 0,0.825 -0.0306,1.4561 -0.09,1.8955 -0.0595,0.4393 -0.1786,0.7808 -0.3532,1.0243 -0.1744,0.2438 -0.4315,0.4107 -0.773,0.5007 -0.3396,0.0923 -0.8154,0.1363 -1.4312,0.1363 -0.6119,0 -1.0877,-0.044 -1.4292,-0.1363 -0.3413,-0.09 -0.6005,-0.2569 -0.7768,-0.5024 -0.1766,-0.2438 -0.2975,-0.589 -0.3589,-1.0322 -0.0612,-0.445 -0.092,-1.0723 -0.092,-1.8859 z m 11.9232,0.3223 -2.0048,0 0,-0.8402 1.9453,0 c 0.4642,0 0.8154,-0.0422 1.0532,-0.1266 0.236,-0.0843 0.4029,-0.238 0.4969,-0.4624 0.094,-0.2263 0.142,-0.5581 0.142,-0.9976 0,-0.3664 -0.0711,-0.6559 -0.2129,-0.8671 -0.144,-0.2109 -0.3741,-0.3606 -0.6927,-0.4507 -0.3184,-0.0902 -0.7559,-0.1343 -1.314,-0.1343 -0.5985,0 -1.0532,0.0498 -1.366,0.1495 -0.3127,0.1017 -0.5351,0.2726 -0.6676,0.5141 -0.1324,0.2438 -0.2149,0.6007 -0.2475,1.0745 l -0.9323,0 c 0.023,-0.5507 0.0998,-0.9956 0.2321,-1.3334 0.1323,-0.3375 0.3261,-0.5965 0.5813,-0.7768 0.2572,-0.1803 0.5736,-0.3052 0.9516,-0.3703 0.3779,-0.0652 0.8614,-0.0978 1.4484,-0.0978 0.7673,0 1.3831,0.0709 1.8493,0.2129 0.4643,0.14 0.8038,0.3701 1.0168,0.6887 0.2129,0.3184 0.3203,0.7423 0.3203,1.2758 0,0.6636 -0.1131,1.1586 -0.3395,1.4809 -0.2246,0.3241 -0.5909,0.5238 -1.0993,0.6004 0.6081,0.0806 1.0245,0.2878 1.2508,0.6196 0.2244,0.3338 0.3377,0.8442 0.3377,1.5329 0,0.587 -0.1133,1.0551 -0.3397,1.4024 -0.2263,0.3452 -0.5813,0.5967 -1.0646,0.7501 -0.4835,0.1535 -1.128,0.2301 -1.9338,0.2301 -0.8977,0 -1.5846,-0.0689 -2.0603,-0.2089 -0.4777,-0.1403 -0.8135,-0.3801 -1.0073,-0.7176 -0.1955,-0.3395 -0.2935,-0.825 -0.2935,-1.4561 l 0,-0.2897 0.921,0 0,0.2783 c 0,0.4641 0.0613,0.8037 0.1879,1.0166 0.1248,0.2149 0.3549,0.3569 0.6887,0.4298 0.3338,0.0709 0.8556,0.1074 1.5655,0.1074 0.4892,0 0.8882,-0.0346 1.1951,-0.1035 0.3089,-0.0691 0.5467,-0.1728 0.7156,-0.3089 0.1689,-0.1383 0.2878,-0.3069 0.3569,-0.5123 0.067,-0.2033 0.1015,-0.4565 0.1015,-0.7557 0,-0.5201 -0.14,-0.9094 -0.4181,-1.1685 -0.2801,-0.257 -0.7348,-0.3856 -1.364,-0.3856 z m 6.7646,3.9827 0,-7.7464 -2.8201,0 0,-0.8748 6.5821,0 -0.01,0.8748 -2.7855,0 0,7.7464 -0.9668,0 z m 6.2811,-4.8343 4.3855,0 0,0.8402 -4.3855,0 0,3.1308 4.5716,0 0,0.8633 -5.527,0 0,-8.6212 5.5481,0 0,0.8516 -4.5927,0 0,2.9353 z m 7.2366,-3.7869 2.4401,3.6832 2.4422,-3.6832 1.1491,0 -2.8297,4.1552 3.083,4.466 -1.1723,0 -2.6723,-3.9595 -2.6704,3.9595 -1.174,0 3.0847,-4.466 -2.8315,-4.1552 1.1511,0 z m 8.6868,3.8098 5.0415,0 0,-3.7984 0.9554,0 0,8.6098 -0.9554,0 0,-3.9712 -5.0415,0 0,3.9712 -0.9554,0 0,-8.6098 0.9554,0 0,3.7984 z m 8.2033,-3.8098 0.9553,0 0,7.967 4.9035,-7.967 1.5309,0 0,8.6212 -0.9554,0 0,-7.8847 -4.9168,7.8847 -1.5175,0 0,-8.6212 z m 10.6072,0 0,3.7638 0.8633,0 3.5088,-3.7638 1.2909,0 -3.9595,4.1667 4.4201,4.4545 -1.3237,0 -3.9481,-4.0056 -0.8518,0 0,4.0056 -0.9554,0 0,-8.6212 0.9554,0 z m 7.1215,8.6212 3.1444,-8.6212 1.3907,0 3.2115,8.6212 -1.0225,0 -0.6467,-1.7727 -4.349,0 -0.6925,1.7727 -1.0359,0 z m 5.7687,-2.6129 -1.9107,-5.2947 -1.8993,5.2947 3.81,0 z m 6.3901,-1.084 c 0,-0.3472 0.1209,-0.6425 0.3625,-0.8824 0.2417,-0.2398 0.5352,-0.3587 0.8824,-0.3587 0.3512,0 0.6505,0.1209 0.896,0.3606 0.2457,0.2418 0.3683,0.5353 0.3683,0.8805 0,0.3473 -0.1226,0.6408 -0.3683,0.8825 -0.2455,0.2418 -0.5448,0.3627 -0.896,0.3627 -0.3472,0 -0.6407,-0.1209 -0.8824,-0.3627 -0.2416,-0.2417 -0.3625,-0.5352 -0.3625,-0.8825 z m 11.4241,-0.2858 -2.0047,0 0,-0.8402 1.9453,0 c 0.4641,0 0.8153,-0.0422 1.0531,-0.1266 0.2361,-0.0843 0.4029,-0.238 0.497,-0.4624 0.094,-0.2263 0.142,-0.5581 0.142,-0.9976 0,-0.3664 -0.0711,-0.6559 -0.2129,-0.8671 -0.144,-0.2109 -0.3741,-0.3606 -0.6927,-0.4507 -0.3184,-0.0902 -0.7559,-0.1343 -1.3141,-0.1343 -0.5984,0 -1.0531,0.0498 -1.366,0.1495 -0.3126,0.1017 -0.535,0.2726 -0.6676,0.5141 -0.1323,0.2438 -0.2148,0.6007 -0.2474,1.0745 l -0.9323,0 c 0.0229,-0.5507 0.0997,-0.9956 0.2321,-1.3334 0.1323,-0.3375 0.3261,-0.5965 0.5813,-0.7768 0.2571,-0.1803 0.5735,-0.3052 0.9516,-0.3703 0.3778,-0.0652 0.8613,-0.0978 1.4483,-0.0978 0.7674,0 1.3832,0.0709 1.8493,0.2129 0.4644,0.14 0.8039,0.3701 1.0168,0.6887 0.213,0.3184 0.3204,0.7423 0.3204,1.2758 0,0.6636 -0.1132,1.1586 -0.3395,1.4809 -0.2246,0.3241 -0.591,0.5238 -1.0994,0.6004 0.6082,0.0806 1.0245,0.2878 1.2509,0.6196 0.2243,0.3338 0.3377,0.8442 0.3377,1.5329 0,0.587 -0.1134,1.0551 -0.3397,1.4024 -0.2264,0.3452 -0.5813,0.5967 -1.0646,0.7501 -0.4835,0.1535 -1.128,0.2301 -1.9338,0.2301 -0.8977,0 -1.5847,-0.0689 -2.0603,-0.2089 -0.4778,-0.1403 -0.8135,-0.3801 -1.0073,-0.7176 -0.1955,-0.3395 -0.2935,-0.825 -0.2935,-1.4561 l 0,-0.2897 0.921,0 0,0.2783 c 0,0.4641 0.0612,0.8037 0.1878,1.0166 0.1249,0.2149 0.355,0.3569 0.6888,0.4298 0.3337,0.0709 0.8556,0.1074 1.5654,0.1074 0.4893,0 0.8882,-0.0346 1.1952,-0.1035 0.3089,-0.0691 0.5467,-0.1728 0.7156,-0.3089 0.1688,-0.1383 0.2877,-0.3069 0.3569,-0.5123 0.0669,-0.2033 0.1015,-0.4565 0.1015,-0.7557 0,-0.5201 -0.14,-0.9094 -0.4181,-1.1685 -0.2801,-0.257 -0.7348,-0.3856 -1.3641,-0.3856 z m 4.1057,3.9827 3.1444,-8.6212 1.3907,0 3.2116,8.6212 -1.0226,0 -0.6466,-1.7727 -4.349,0 -0.6925,1.7727 -1.036,0 z m 5.7688,-2.6129 -1.9108,-5.2947 -1.8992,5.2947 3.81,0 z m 3.6202,-5.9969 6.9522,0 0,8.6098 -0.9554,0 0,-7.7464 -5.0415,0 0,7.7464 -0.9553,0 0,-8.6098 z m 14.5916,8.6098 0,-4.0536 c -0.4912,0.1324 -1.3583,0.1976 -2.6032,0.1976 -0.6007,0 -1.0897,-0.0421 -1.4658,-0.1267 -0.3741,-0.0843 -0.6695,-0.2283 -0.8844,-0.4297 -0.2149,-0.2013 -0.3644,-0.4776 -0.4527,-0.8268 -0.0863,-0.3473 -0.1304,-0.8037 -0.1304,-1.3678 l 0,-2.0142 0.9554,0 0,2.1849 c 0,0.4068 0.0421,0.7272 0.1284,0.9593 0.0845,0.234 0.2149,0.4047 0.3895,0.5141 0.1726,0.1074 0.3895,0.1783 0.6446,0.2092 0.255,0.0306 0.6042,0.046 1.0474,0.046 1.1587,0 1.9491,-0.0537 2.3712,-0.1632 l 0,-3.7503 0.9553,0 0,8.6212 -0.9553,0 z m 2.876,0 3.1444,-8.6212 1.3906,0 3.2116,8.6212 -1.0225,0 -0.6467,-1.7727 -4.349,0 -0.6925,1.7727 -1.0359,0 z m 5.7687,-2.6129 -1.9107,-5.2947 -1.8993,5.2947 3.81,0 z m 9.2009,-0.2647 0.9323,0 c 0,0.7654 -0.0978,1.3601 -0.2955,1.7822 -0.1955,0.4221 -0.539,0.727 -1.0283,0.9113 -0.4892,0.1841 -1.1854,0.2761 -2.093,0.2761 -0.6867,0 -1.2449,-0.0594 -1.6708,-0.1803 -0.4278,-0.1209 -0.7712,-0.3358 -1.0302,-0.6427 -0.2589,-0.3069 -0.4469,-0.7462 -0.5641,-1.316 -0.1169,-0.5679 -0.1763,-1.3141 -0.1763,-2.2349 0,-0.9188 0.0574,-1.6632 0.1726,-2.2368 0.1151,-0.5736 0.303,-1.0188 0.5639,-1.3372 0.2629,-0.3184 0.6081,-0.541 1.0379,-0.6676 0.4298,-0.1266 0.986,-0.19 1.667,-0.19 0.6812,0 1.2317,0.0557 1.6557,0.1652 0.4219,0.1112 0.7482,0.28 0.9783,0.5101 0.2284,0.2284 0.3895,0.5104 0.4816,0.8499 0.094,0.3376 0.1554,0.7731 0.186,1.3064 l -0.9303,-0.0115 c -0.0596,-0.5659 -0.144,-0.9802 -0.2534,-1.2392 -0.1092,-0.2591 -0.3221,-0.4469 -0.6368,-0.5641 -0.3146,-0.1169 -0.8076,-0.1764 -1.4811,-0.1764 -0.5082,0 -0.9188,0.0498 -1.2315,0.1496 -0.3109,0.1017 -0.5584,0.2781 -0.7405,0.5352 -0.1823,0.2552 -0.3108,0.6139 -0.3875,1.0763 -0.0768,0.4623 -0.1151,1.0723 -0.1151,1.8301 0,0.7654 0.0383,1.3735 0.1131,1.8244 0.0749,0.4508 0.2035,0.8 0.3838,1.0512 0.1821,0.2514 0.4276,0.4241 0.7385,0.5181 0.3107,0.094 0.7251,0.14 1.2392,0.14 0.5218,0 0.9419,-0.0326 1.2605,-0.0978 0.3204,-0.0634 0.5679,-0.1746 0.7462,-0.33 0.1784,-0.1554 0.3012,-0.3664 0.3721,-0.635 0.0711,-0.2686 0.1057,-0.6253 0.1057,-1.0666 z m 4.7539,2.8776 0,-7.7464 -2.82,0 0,-0.8748 6.582,0 -0.01,0.8748 -2.7855,0 0,7.7464 -0.9669,0 z m 5.3258,-8.6212 0.9553,0 0,7.967 4.9035,-7.967 1.5309,0 0,8.6212 -0.9554,0 0,-7.8847 -4.9169,7.8847 -1.5174,0 0,-8.6212 z m 12.4102,4.9243 c 0,-0.3472 0.1209,-0.6425 0.3625,-0.8824 0.2417,-0.2398 0.5352,-0.3587 0.8825,-0.3587 0.3511,0 0.6504,0.1209 0.8959,0.3606 0.2457,0.2418 0.3683,0.5353 0.3683,0.8805 0,0.3473 -0.1226,0.6408 -0.3683,0.8825 -0.2455,0.2418 -0.5448,0.3627 -0.8959,0.3627 -0.3473,0 -0.6408,-0.1209 -0.8825,-0.3627 -0.2416,-0.2417 -0.3625,-0.5352 -0.3625,-0.8825 z m 13.2045,0.8193 0.9323,0 c 0,0.7654 -0.0978,1.3601 -0.2955,1.7822 -0.1955,0.4221 -0.539,0.727 -1.0282,0.9113 -0.4893,0.1841 -1.1855,0.2761 -2.0931,0.2761 -0.6867,0 -1.2449,-0.0594 -1.6707,-0.1803 -0.4278,-0.1209 -0.7713,-0.3358 -1.0303,-0.6427 -0.2589,-0.3069 -0.4469,-0.7462 -0.5641,-1.316 -0.1169,-0.5679 -0.1763,-1.3141 -0.1763,-2.2349 0,-0.9188 0.0574,-1.6632 0.1726,-2.2368 0.1151,-0.5736 0.303,-1.0188 0.5639,-1.3372 0.2629,-0.3184 0.6081,-0.541 1.0379,-0.6676 0.4298,-0.1266 0.986,-0.19 1.667,-0.19 0.6812,0 1.2317,0.0557 1.6558,0.1652 0.4219,0.1112 0.7481,0.28 0.9782,0.5101 0.2284,0.2284 0.3895,0.5104 0.4816,0.8499 0.094,0.3376 0.1554,0.7731 0.186,1.3064 l -0.9302,-0.0115 c -0.0597,-0.5659 -0.144,-0.9802 -0.2535,-1.2392 -0.1092,-0.2591 -0.3221,-0.4469 -0.6367,-0.5641 -0.3147,-0.1169 -0.8077,-0.1764 -1.4812,-0.1764 -0.5082,0 -0.9188,0.0498 -1.2315,0.1496 -0.3109,0.1017 -0.5583,0.2781 -0.7404,0.5352 -0.1823,0.2552 -0.3109,0.6139 -0.3876,1.0763 -0.0768,0.4623 -0.1151,1.0723 -0.1151,1.8301 0,0.7654 0.0383,1.3735 0.1132,1.8244 0.0748,0.4508 0.2034,0.8 0.3837,1.0512 0.1821,0.2514 0.4276,0.4241 0.7385,0.5181 0.3107,0.094 0.7251,0.14 1.2392,0.14 0.5218,0 0.942,-0.0326 1.2605,-0.0978 0.3204,-0.0634 0.5679,-0.1746 0.7462,-0.33 0.1784,-0.1554 0.3013,-0.3664 0.3722,-0.635 0.0711,-0.2686 0.1056,-0.6253 0.1056,-1.0666 z m 3.5454,-1.9567 4.3855,0 0,0.8402 -4.3855,0 0,3.1308 4.5716,0 0,0.8633 -5.527,0 0,-8.6212 5.5481,0 0,0.8516 -4.5927,0 0,2.9353 z m 7.4438,1.4618 0,3.3725 -0.9554,0 0,-8.6212 4.1093,0 c 0.5141,0 0.94,0.0863 1.2795,0.2607 0.3375,0.1746 0.5909,0.4452 0.7596,0.8135 0.1669,0.3684 0.2514,0.8345 0.2514,1.4004 0,0.6964 -0.096,1.2451 -0.2877,1.6498 -0.192,0.4049 -0.497,0.6925 -0.9151,0.8653 -0.4183,0.1727 -0.9805,0.259 -1.6864,0.259 l -2.5552,0 z m 0,-0.8403 2.2906,0 c 0.5601,0 0.9917,-0.0402 1.2968,-0.1228 0.303,-0.0826 0.5276,-0.2495 0.6714,-0.4987 0.1457,-0.2495 0.2186,-0.6255 0.2186,-1.128 0,-0.6696 -0.1035,-1.1377 -0.3107,-1.4063 -0.2072,-0.2666 -0.587,-0.401 -1.1394,-0.401 l -3.0273,0 0,3.5568 z m 8.2495,0.1956 0,3.1539 2.6589,0 c 0.4124,0 0.7365,-0.0172 0.9763,-0.0498 0.24,-0.0346 0.4375,-0.1037 0.593,-0.2092 0.1534,-0.1037 0.2666,-0.2589 0.3375,-0.4661 0.0711,-0.2052 0.1074,-0.4855 0.1074,-0.8384 0,-0.4682 -0.046,-0.8154 -0.14,-1.0378 -0.092,-0.2226 -0.2475,-0.3703 -0.4661,-0.4432 -0.2206,-0.0729 -0.5544,-0.1094 -1.0071,-0.1094 l -3.0599,0 z m 0,-3.7524 0,2.9122 2.7395,0 c 0.4335,0 0.7691,-0.0441 1.0109,-0.1324 0.2398,-0.0883 0.4126,-0.2437 0.5141,-0.4661 0.1037,-0.2226 0.1554,-0.541 0.1554,-0.9536 0,-0.5256 -0.094,-0.8842 -0.28,-1.0743 -0.1861,-0.1898 -0.5373,-0.2858 -1.0551,-0.2858 l -3.0848,0 z m 3.4397,7.7696 -4.3951,0 0,-8.6212 4.1533,0 c 0.7539,0 1.3084,0.1629 1.6613,0.491 0.3512,0.3281 0.5276,0.8748 0.5276,1.6401 0,0.3666 -0.023,0.6696 -0.0709,0.9056 -0.048,0.2378 -0.1515,0.445 -0.309,0.6253 -0.1572,0.1804 -0.3912,0.3263 -0.7021,0.4356 0.3703,0.1037 0.6524,0.2397 0.8442,0.4124 0.1917,0.1708 0.3223,0.3837 0.3895,0.6407 0.0671,0.2552 0.1015,0.5872 0.1015,0.9957 0,0.8153 -0.1687,1.4331 -0.5045,1.8495 -0.3357,0.4161 -0.9016,0.6253 -1.6958,0.6253 z m 4.1171,-8.6212 0.9554,0 0,7.967 4.9034,-7.967 1.531,0 0,8.6212 -0.9554,0 0,-7.8847 -4.9169,7.8847 -1.5175,0 0,-8.6212 z m 15.2211,5.7436 0.9323,0 c 0,0.7654 -0.0978,1.3601 -0.2955,1.7822 -0.1955,0.4221 -0.539,0.727 -1.0283,0.9113 -0.4892,0.1841 -1.1854,0.2761 -2.093,0.2761 -0.6867,0 -1.2449,-0.0594 -1.6707,-0.1803 -0.4279,-0.1209 -0.7713,-0.3358 -1.0303,-0.6427 -0.2589,-0.3069 -0.4469,-0.7462 -0.5641,-1.316 -0.1169,-0.5679 -0.1763,-1.3141 -0.1763,-2.2349 0,-0.9188 0.0574,-1.6632 0.1726,-2.2368 0.1151,-0.5736 0.303,-1.0188 0.5639,-1.3372 0.2629,-0.3184 0.6081,-0.541 1.0379,-0.6676 0.4298,-0.1266 0.986,-0.19 1.667,-0.19 0.6812,0 1.2317,0.0557 1.6558,0.1652 0.4218,0.1112 0.7481,0.28 0.9782,0.5101 0.2284,0.2284 0.3895,0.5104 0.4816,0.8499 0.094,0.3376 0.1554,0.7731 0.186,1.3064 l -0.9303,-0.0115 c -0.0596,-0.5659 -0.1439,-0.9802 -0.2534,-1.2392 -0.1092,-0.2591 -0.3221,-0.4469 -0.6367,-0.5641 -0.3147,-0.1169 -0.8077,-0.1764 -1.4812,-0.1764 -0.5082,0 -0.9188,0.0498 -1.2315,0.1496 -0.3109,0.1017 -0.5583,0.2781 -0.7405,0.5352 -0.1823,0.2552 -0.3108,0.6139 -0.3875,1.0763 -0.0768,0.4623 -0.1151,1.0723 -0.1151,1.8301 0,0.7654 0.0383,1.3735 0.1132,1.8244 0.0748,0.4508 0.2034,0.8 0.3837,1.0512 0.1821,0.2514 0.4276,0.4241 0.7385,0.5181 0.3107,0.094 0.7251,0.14 1.2392,0.14 0.5218,0 0.9419,-0.0326 1.2605,-0.0978 0.3204,-0.0634 0.5679,-0.1746 0.7462,-0.33 0.1784,-0.1554 0.3012,-0.3664 0.3721,-0.635 0.0711,-0.2686 0.1057,-0.6253 0.1057,-1.0666 z" />
</svg>
